<svg xmlns="http://www.w3.org/2000/svg" viewBox="0 0 96 96" width="96" height="96" role="img" aria-label="Automation">
  <defs>
    <path id="ag-lines" fill="none" d="M15.83 16.67H14C12.6 16.67 11.9 16.67 11.365 16.394C10.89 16.15 10.51 15.77 10.27 15.3C10 14.77 10 14.07 10 12.67V7.33C10 5.93 10 5.23 10.27 4.7C10.51 4.23 10.89 3.85 11.365 3.61C11.9 3.33 12.6 3.33 14 3.33H15.83M4.17 10H15.83"/>
    <path id="ag-nodes" fill="none" stroke-linecap="round" d="M15.83 3.33h0.01M15.83 10h0.01M15.83 16.67h0.01M4.17 10h0.01"/>
  </defs>
  <defs>
    <clipPath id="v2-tile"><rect width="96" height="96" rx="26"/></clipPath>
    <linearGradient id="v2-ground" x1="0" y1="0" x2="1" y2="1">
      <stop offset="0" stop-color="#0d0838"/><stop offset="1" stop-color="#030112"/>
    </linearGradient>
    <linearGradient id="v2-ink" gradientUnits="userSpaceOnUse" x1="3" y1="18" x2="17" y2="2">
      <stop offset="0" stop-color="#4865ff"/>
      <stop offset="0.38" stop-color="#a2baff"/>
      <stop offset="0.55" stop-color="#f8f3eb"/>
      <stop offset="0.78" stop-color="#f098d7"/>
      <stop offset="1" stop-color="#ff6d39"/>
    </linearGradient>
    <filter id="v2-halo" x="-80%" y="-80%" width="260%" height="260%" color-interpolation-filters="sRGB"><feGaussianBlur stdDeviation="1.8"/></filter>
    <filter id="v2-soft" x="-60%" y="-60%" width="220%" height="220%" color-interpolation-filters="sRGB"><feGaussianBlur stdDeviation="0.5"/></filter>
    <filter id="v2-bloom" x="-60%" y="-60%" width="220%" height="220%" color-interpolation-filters="sRGB"><feGaussianBlur stdDeviation="14"/></filter>
  </defs>
  <g clip-path="url(#v2-tile)">
    <rect width="96" height="96" fill="url(#v2-ground)"/>
    <g filter="url(#v2-bloom)"><circle cx="0" cy="96" r="30" fill="#4865ff" opacity="0.6"/></g>
    <g transform="translate(48 48) rotate(-18) translate(-48 -48) translate(-26 -12) scale(6)" stroke="url(#v2-ink)" stroke-linecap="round" stroke-linejoin="round">
      <g filter="url(#v2-halo)" opacity="0.65"><use href="#ag-lines" stroke-width="3"/><use href="#ag-nodes" stroke-width="5.4"/></g>
      <g filter="url(#v2-soft)" opacity="0.9"><use href="#ag-lines" stroke-width="2"/><use href="#ag-nodes" stroke-width="4.4"/></g>
      <use href="#ag-lines" stroke-width="1.4"/><use href="#ag-nodes" stroke-width="3.8"/>
    </g>
  </g>
  <rect x="0.5" y="0.5" width="95" height="95" rx="25.5" fill="none" stroke="#ffffff" stroke-opacity="0.14"/>
</svg>
